<svg width="25" height="25" viewBox="0 0 25 25" fill="none" xmlns="http://www.w3.org/2000/svg">
<path d="M20.7909 14.4803L15.6309 15.4663" stroke="#006BFF" stroke-width="2" stroke-linecap="round" stroke-linejoin="round"/>
<path d="M14.9155 8.61827L11.4475 9.76427C11.1792 9.85262 10.8877 9.83917 10.6286 9.7265C10.3695 9.61383 10.1609 9.4098 10.0425 9.15327C9.91493 8.87945 9.89878 8.56675 9.99749 8.28125C10.0962 7.99574 10.3021 7.7598 10.5715 7.62327L13.9305 5.93427C14.2168 5.78989 14.5297 5.7058 14.8498 5.68722C15.1699 5.66865 15.4904 5.71597 15.7915 5.82627L20.7645 7.64527" stroke="#006BFF" stroke-width="2" stroke-linecap="round" stroke-linejoin="round"/>
<path d="M4.18555 14.4883H6.63055L10.1425 18.4243C10.3214 18.6315 10.5594 18.7791 10.8245 18.8473C11.0896 18.9154 11.3693 18.9008 11.6259 18.8055C11.8825 18.7102 12.1038 18.5386 12.2602 18.3139C12.4165 18.0892 12.5004 17.822 12.5005 17.5483V16.9333L12.6755 17.0033C12.9268 17.1037 13.1988 17.1411 13.4678 17.1122C13.7368 17.0832 13.9946 16.9888 14.2187 16.8371C14.4428 16.6855 14.6263 16.4812 14.7532 16.2422C14.8801 16.0033 14.9465 15.7368 14.9465 15.4663H15.4355C15.708 15.4661 15.975 15.3901 16.2067 15.2467C16.4385 15.1034 16.6257 14.8985 16.7476 14.6548C16.8694 14.4111 16.921 14.1383 16.8967 13.8669C16.8723 13.5956 16.7729 13.3363 16.6095 13.1183L13.4705 9.09625" stroke="#006BFF" stroke-width="2" stroke-linecap="round" stroke-linejoin="round"/>
<path d="M11.083 7.36525L10.725 7.07025C10.3643 6.80461 9.928 6.6613 9.48 6.66126C9.21305 6.66116 8.94858 6.71242 8.701 6.81226L4.25 8.59225" stroke="#006BFF" stroke-width="2" stroke-linecap="round" stroke-linejoin="round"/>
<path d="M1.25 6.8903H3.25C3.50393 6.87972 3.75172 6.97016 3.93913 7.14183C4.12654 7.3135 4.23832 7.55241 4.25 7.8063V14.2233C4.23832 14.4773 4.12657 14.7163 3.93919 14.8881C3.75181 15.0599 3.50403 15.1506 3.25 15.1403H1.25" stroke="#006BFF" stroke-width="2" stroke-linecap="round" stroke-linejoin="round"/>
<path d="M23.75 15.1403H21.75C21.496 15.1506 21.2482 15.0599 21.0608 14.8881C20.8734 14.7163 20.7617 14.4773 20.75 14.2233V7.8063C20.7617 7.55241 20.8735 7.3135 21.0609 7.14183C21.2483 6.97016 21.4961 6.87972 21.75 6.8903H23.75" stroke="#006BFF" stroke-width="2" stroke-linecap="round" stroke-linejoin="round"/>
<path d="M12.4995 16.9333L11.5215 15.9553" stroke="#006BFF" stroke-width="2" stroke-linecap="round" stroke-linejoin="round"/>
<path d="M14.9465 15.4663L13.4785 13.9983" stroke="#006BFF" stroke-width="2" stroke-linecap="round" stroke-linejoin="round"/>
</svg>
