<svg width="29" height="29" viewBox="0 0 29 29" fill="none" xmlns="http://www.w3.org/2000/svg">
<path d="M14.535 1.47845C14.5823 1.38469 14.6546 1.30589 14.744 1.25083C14.8334 1.19578 14.9364 1.16663 15.0414 1.16663C15.1464 1.16663 15.2493 1.19578 15.3387 1.25083C15.4281 1.30589 15.5004 1.38469 15.5477 1.47845L16.7249 3.85145C16.7655 3.93279 16.8253 4.00308 16.8991 4.05631C16.9728 4.10954 17.0583 4.14412 17.1484 4.15711L19.7897 4.53862C19.8929 4.55311 19.99 4.59603 20.0701 4.66259C20.1503 4.72914 20.2103 4.8167 20.2435 4.91545C20.2761 5.01381 20.2801 5.11939 20.2551 5.21995C20.2301 5.3205 20.1772 5.41192 20.1024 5.48361L18.1914 7.34328C18.1268 7.40555 18.0784 7.4826 18.0504 7.56778C18.0223 7.65296 18.0155 7.74369 18.0304 7.83211L18.483 10.4536C18.5001 10.5562 18.488 10.6615 18.4479 10.7574C18.4079 10.8534 18.3416 10.9361 18.2567 10.9961C18.1712 11.0572 18.0704 11.0933 17.9656 11.1005C17.8607 11.1077 17.7559 11.0857 17.6629 11.0369L15.305 9.80728C15.2238 9.76418 15.1333 9.74164 15.0414 9.74164C14.9494 9.74164 14.8589 9.76418 14.7777 9.80728L12.4257 11.0369C12.3326 11.0857 12.2278 11.1077 12.123 11.1005C12.0182 11.0933 11.9174 11.0572 11.8319 10.9961C11.747 10.9361 11.6807 10.8534 11.6406 10.7574C11.6006 10.6615 11.5884 10.5562 11.6055 10.4536L12.0582 7.83211C12.0731 7.74369 12.0662 7.65296 12.0382 7.56778C12.0101 7.4826 11.9617 7.40555 11.8972 7.34328L9.98037 5.48361C9.90556 5.41192 9.8526 5.3205 9.82761 5.21995C9.80263 5.11939 9.80665 5.01381 9.8392 4.91545C9.87241 4.8167 9.93245 4.72914 10.0126 4.66259C10.0928 4.59603 10.1899 4.55311 10.293 4.53862L12.9344 4.15711C13.0244 4.14412 13.1099 4.10954 13.1837 4.05631C13.2574 4.00308 13.3172 3.93279 13.3579 3.85145L14.535 1.47845Z" stroke="#476788" stroke-width="1.5" stroke-linecap="round" stroke-linejoin="round"/>
<path d="M8.41703 12.0752L7.4102 11.5502C7.32861 11.5077 7.23796 11.4855 7.14595 11.4855C7.05394 11.4855 6.96329 11.5077 6.8817 11.5502L4.53086 12.7752C4.4376 12.8239 4.33275 12.8459 4.22779 12.8389C4.12284 12.8319 4.02184 12.7962 3.93586 12.7356C3.85097 12.6753 3.78479 12.5924 3.74496 12.4962C3.70513 12.4 3.69325 12.2945 3.7107 12.1919L4.1622 9.57158C4.17745 9.48324 4.17086 9.39252 4.143 9.30731C4.11514 9.22211 4.06686 9.14501 4.00236 9.08275L2.08436 7.22658C2.00999 7.1546 1.95741 7.06312 1.93265 6.96263C1.90789 6.86214 1.91195 6.7567 1.94436 6.65841C1.97757 6.55966 2.03762 6.47211 2.11777 6.40556C2.19793 6.339 2.29503 6.29607 2.3982 6.28158L5.03836 5.90008C5.12859 5.88727 5.21436 5.85276 5.28832 5.79953C5.36229 5.74629 5.42224 5.67591 5.46303 5.59441L6.64136 3.22141C6.68845 3.12754 6.76077 3.04866 6.85022 2.99364C6.93966 2.93861 7.04268 2.90962 7.1477 2.90991" stroke="#476788" stroke-width="1.5" stroke-linecap="round" stroke-linejoin="round"/>
<path d="M21.6657 12.0752L22.6725 11.5491C22.7541 11.5065 22.8448 11.4843 22.9368 11.4843C23.0288 11.4843 23.1195 11.5065 23.201 11.5491L25.5519 12.7752C25.6451 12.8239 25.75 12.8459 25.8549 12.8389C25.9599 12.8319 26.0609 12.7962 26.1469 12.7356C26.2318 12.6753 26.2979 12.5924 26.3378 12.4962C26.3776 12.4 26.3895 12.2945 26.372 12.1919L25.9205 9.57158C25.9053 9.48324 25.9119 9.39252 25.9397 9.30731C25.9676 9.22211 26.0159 9.14501 26.0804 9.08275L27.9984 7.22191C28.0727 7.14994 28.1253 7.05846 28.1501 6.95797C28.1749 6.85747 28.1708 6.75204 28.1384 6.65375C28.1052 6.555 28.0451 6.46744 27.965 6.40089C27.8848 6.33433 27.7877 6.29141 27.6845 6.27691L25.0444 5.89541C24.9542 5.8826 24.8684 5.8481 24.7944 5.79486C24.7205 5.74162 24.6605 5.67124 24.6197 5.58975L23.4414 3.22141C23.3943 3.12754 23.322 3.04866 23.2325 2.99364C23.1431 2.93861 23.0401 2.90962 22.935 2.90991" stroke="#476788" stroke-width="1.5" stroke-linecap="round" stroke-linejoin="round"/>
<path d="M20.9085 27.4111C20.1772 26.5738 19.2751 25.9028 18.2629 25.443C17.2507 24.9832 16.1519 24.7454 15.0402 24.7454C13.9285 24.7454 12.8297 24.9832 11.8175 25.443C10.8053 25.9028 9.90326 26.5738 9.17188 27.4111" stroke="#476788" stroke-width="1.5" stroke-linecap="round" stroke-linejoin="round"/>
<path d="M10.8939 15.741C12.0224 16.9097 13.4801 17.7071 15.0729 18.0272C16.6657 18.3473 18.3182 18.1749 19.8107 17.533" stroke="#476788" stroke-width="1.5" stroke-linecap="round" stroke-linejoin="round"/>
<path d="M10.2289 18.184C10.2289 19.4603 10.7359 20.6844 11.6384 21.5869C12.5409 22.4894 13.765 22.9965 15.0414 22.9965C16.3177 22.9965 17.5418 22.4894 18.4443 21.5869C19.3468 20.6844 19.8539 19.4603 19.8539 18.184C19.8539 16.9076 19.3468 15.6835 18.4443 14.781C17.5418 13.8785 16.3177 13.3715 15.0414 13.3715C13.765 13.3715 12.5409 13.8785 11.6384 14.781C10.7359 15.6835 10.2289 16.9076 10.2289 18.184V18.184Z" stroke="#476788" stroke-width="1.5" stroke-linecap="round" stroke-linejoin="round"/>
</svg>
