<svg width="28" height="28" viewBox="0 0 28 28" fill="none" xmlns="http://www.w3.org/2000/svg">
<path d="M2.625 4.375C2.625 5.30326 2.99375 6.1935 3.65013 6.84987C4.3065 7.50625 5.19674 7.875 6.125 7.875C7.05326 7.875 7.9435 7.50625 8.59987 6.84987C9.25625 6.1935 9.625 5.30326 9.625 4.375C9.625 3.44674 9.25625 2.5565 8.59987 1.90013C7.9435 1.24375 7.05326 0.875 6.125 0.875C5.19674 0.875 4.3065 1.24375 3.65013 1.90013C2.99375 2.5565 2.625 3.44674 2.625 4.375V4.375Z" stroke="#476788" stroke-width="1.5" stroke-linecap="round" stroke-linejoin="round"/>
<path d="M11.375 16.625V14.875C11.375 13.4826 10.8219 12.1473 9.83731 11.1627C8.85274 10.1781 7.51739 9.625 6.125 9.625C4.73261 9.625 3.39726 10.1781 2.41269 11.1627C1.42812 12.1473 0.875 13.4826 0.875 14.875V18.375H2.625L3.5 27.125H8.75L9.5375 19.25" stroke="#476788" stroke-width="1.5" stroke-linecap="round" stroke-linejoin="round"/>
<path d="M14.875 14.875H25.375C25.8391 14.875 26.2842 14.6906 26.6124 14.3624C26.9406 14.0342 27.125 13.5891 27.125 13.125V2.625C27.125 2.16087 26.9406 1.71575 26.6124 1.38756C26.2842 1.05937 25.8391 0.875 25.375 0.875H13.125" stroke="#476788" stroke-width="1.5" stroke-linecap="round" stroke-linejoin="round"/>
<path d="M23.625 11.375H14.875" stroke="#476788" stroke-width="1.5" stroke-linecap="round" stroke-linejoin="round"/>
<path d="M12.397 21.4375C12.397 22.2497 12.7197 23.0287 13.294 23.603C13.8683 24.1773 14.6473 24.5 15.4595 24.5C16.2717 24.5 17.0507 24.1773 17.625 23.603C18.1993 23.0287 18.522 22.2497 18.522 21.4375C18.522 20.6253 18.1993 19.8463 17.625 19.272C17.0507 18.6977 16.2717 18.375 15.4595 18.375C14.6473 18.375 13.8683 18.6977 13.294 19.272C12.7197 19.8463 12.397 20.6253 12.397 21.4375V21.4375Z" stroke="#476788" stroke-width="1.5" stroke-linecap="round" stroke-linejoin="round"/>
<path d="M19.25 27.1251C18.7824 26.5761 18.2012 26.1352 17.5466 25.8328C16.8919 25.5305 16.1794 25.3739 15.4583 25.3739C14.7372 25.3739 14.0247 25.5305 13.3701 25.8328C12.7154 26.1352 12.1342 26.5761 11.6667 27.1251" stroke="#476788" stroke-width="1.5" stroke-linecap="round" stroke-linejoin="round"/>
<path d="M20.272 21.4375C20.272 22.2497 20.5947 23.0287 21.169 23.603C21.7433 24.1773 22.5223 24.5 23.3345 24.5C24.1467 24.5 24.9257 24.1773 25.5 23.603C26.0743 23.0287 26.397 22.2497 26.397 21.4375C26.397 20.6253 26.0743 19.8463 25.5 19.272C24.9257 18.6977 24.1467 18.375 23.3345 18.375C22.5223 18.375 21.7433 18.6977 21.169 19.272C20.5947 19.8463 20.272 20.6253 20.272 21.4375V21.4375Z" stroke="#476788" stroke-width="1.5" stroke-linecap="round" stroke-linejoin="round"/>
<path d="M27.125 27.1251C26.6574 26.5761 26.0762 26.1352 25.4216 25.8328C24.7669 25.5305 24.0544 25.3739 23.3333 25.3739C22.6122 25.3739 21.8997 25.5305 21.2451 25.8328C20.5904 26.1352 20.0092 26.5761 19.5417 27.1251" stroke="#476788" stroke-width="1.5" stroke-linecap="round" stroke-linejoin="round"/>
<path d="M21.875 11.375V4.375" stroke="#476788" stroke-width="1.5" stroke-linecap="round" stroke-linejoin="round"/>
<path d="M18.375 11.375V7" stroke="#476788" stroke-width="1.5" stroke-linecap="round" stroke-linejoin="round"/>
</svg>
