<svg width="25" height="26" viewBox="0 0 25 26" fill="none" xmlns="http://www.w3.org/2000/svg">
<path d="M2.75 4.75C2.75 5.54565 3.06607 6.30871 3.62868 6.87132C4.19129 7.43393 4.95435 7.75 5.75 7.75C6.54565 7.75 7.30871 7.43393 7.87132 6.87132C8.43393 6.30871 8.75 5.54565 8.75 4.75C8.75 3.95435 8.43393 3.19129 7.87132 2.62868C7.30871 2.06607 6.54565 1.75 5.75 1.75C4.95435 1.75 4.19129 2.06607 3.62868 2.62868C3.06607 3.19129 2.75 3.95435 2.75 4.75V4.75Z" stroke="#006BFF" stroke-width="2" stroke-linecap="round" stroke-linejoin="round"/>
<path d="M10.25 15.25V13.75C10.25 12.5565 9.77589 11.4119 8.93198 10.568C8.08807 9.72411 6.94347 9.25 5.75 9.25C4.55653 9.25 3.41193 9.72411 2.56802 10.568C1.72411 11.4119 1.25 12.5565 1.25 13.75V16.75H2.75L3.5 24.25H8L8.675 17.5" stroke="#006BFF" stroke-width="2" stroke-linecap="round" stroke-linejoin="round"/>
<path d="M13.25 13.75H22.25C22.6478 13.75 23.0294 13.592 23.3107 13.3107C23.592 13.0294 23.75 12.6478 23.75 12.25V3.25C23.75 2.85218 23.592 2.47064 23.3107 2.18934C23.0294 1.90804 22.6478 1.75 22.25 1.75H11.75" stroke="#006BFF" stroke-width="2" stroke-linecap="round" stroke-linejoin="round"/>
<path d="M20.75 10.75H13.25" stroke="#006BFF" stroke-width="2" stroke-linecap="round" stroke-linejoin="round"/>
<path d="M11.127 19.375C11.127 20.0712 11.4035 20.7389 11.8958 21.2312C12.3881 21.7234 13.0558 22 13.752 22C14.4481 22 15.1158 21.7234 15.6081 21.2312C16.1004 20.7389 16.377 20.0712 16.377 19.375C16.377 18.6788 16.1004 18.0111 15.6081 17.5188C15.1158 17.0266 14.4481 16.75 13.752 16.75C13.0558 16.75 12.3881 17.0266 11.8958 17.5188C11.4035 18.0111 11.127 18.6788 11.127 19.375V19.375Z" stroke="#006BFF" stroke-width="2" stroke-linecap="round" stroke-linejoin="round"/>
<path d="M17 24.25C16.5992 23.7795 16.1011 23.4016 15.5399 23.1424C14.9788 22.8832 14.3681 22.749 13.75 22.749C13.1319 22.749 12.5212 22.8832 11.9601 23.1424C11.3989 23.4016 10.9008 23.7795 10.5 24.25" stroke="#006BFF" stroke-width="2" stroke-linecap="round" stroke-linejoin="round"/>
<path d="M17.877 19.375C17.877 20.0712 18.1535 20.7389 18.6458 21.2312C19.1381 21.7234 19.8058 22 20.502 22C21.1981 22 21.8658 21.7234 22.3581 21.2312C22.8504 20.7389 23.127 20.0712 23.127 19.375C23.127 18.6788 22.8504 18.0111 22.3581 17.5188C21.8658 17.0266 21.1981 16.75 20.502 16.75C19.8058 16.75 19.1381 17.0266 18.6458 17.5188C18.1535 18.0111 17.877 18.6788 17.877 19.375V19.375Z" stroke="#006BFF" stroke-width="2" stroke-linecap="round" stroke-linejoin="round"/>
<path d="M23.75 24.25C23.3492 23.7795 22.8511 23.4016 22.2899 23.1424C21.7288 22.8832 21.1181 22.749 20.5 22.749C19.8819 22.749 19.2712 22.8832 18.7101 23.1424C18.1489 23.4016 17.6508 23.7795 17.25 24.25" stroke="#006BFF" stroke-width="2" stroke-linecap="round" stroke-linejoin="round"/>
<path d="M19.25 10.75V4.75" stroke="#006BFF" stroke-width="2" stroke-linecap="round" stroke-linejoin="round"/>
<path d="M16.25 10.75V7" stroke="#006BFF" stroke-width="2" stroke-linecap="round" stroke-linejoin="round"/>
</svg>
