<svg width="25" height="24" viewBox="0 0 25 24" fill="none" xmlns="http://www.w3.org/2000/svg">
<path d="M8.75 12.024C9.77545 12.9583 11.1127 13.4761 12.5 13.4761C13.8873 13.4761 15.2245 12.9583 16.25 12.024" stroke="#006BFF" stroke-width="2" stroke-linecap="round" stroke-linejoin="round"/>
<path d="M10.25 7.5V9" stroke="#006BFF" stroke-width="2" stroke-linecap="round" stroke-linejoin="round"/>
<path d="M14.75 7.5V9" stroke="#006BFF" stroke-width="2" stroke-linecap="round" stroke-linejoin="round"/>
<path d="M3.5 13.5V5.25C3.5 4.85218 3.65804 4.47064 3.93934 4.18934C4.22064 3.90804 4.60218 3.75 5 3.75H20C20.3978 3.75 20.7794 3.90804 21.0607 4.18934C21.342 4.47064 21.5 4.85218 21.5 5.25V13.5" stroke="#006BFF" stroke-width="2" stroke-linecap="round" stroke-linejoin="round"/>
<path d="M1.25 16.5C1.25 17.4946 1.64509 18.4484 2.34835 19.1517C3.05161 19.8549 4.00544 20.25 5 20.25H20C20.9946 20.25 21.9484 19.8549 22.6517 19.1517C23.3549 18.4484 23.75 17.4946 23.75 16.5H1.25Z" stroke="#006BFF" stroke-width="2" stroke-linecap="round" stroke-linejoin="round"/>
</svg>
