<svg width="25" height="25" viewBox="0 0 25 25" fill="none" xmlns="http://www.w3.org/2000/svg">
<path d="M2.75 4.12213C2.75 4.91778 3.06607 5.68084 3.62868 6.24345C4.19129 6.80606 4.95435 7.12213 5.75 7.12213C6.54565 7.12213 7.30871 6.80606 7.87132 6.24345C8.43393 5.68084 8.75 4.91778 8.75 4.12213C8.75 3.32648 8.43393 2.56342 7.87132 2.00081C7.30871 1.4382 6.54565 1.12213 5.75 1.12213C4.95435 1.12213 4.19129 1.4382 3.62868 2.00081C3.06607 2.56342 2.75 3.32648 2.75 4.12213V4.12213Z" stroke="#006BFF" stroke-width="2" stroke-linecap="round" stroke-linejoin="round"/>
<path d="M5.75 8.62213V14.6221" stroke="#006BFF" stroke-width="2" stroke-linecap="round" stroke-linejoin="round"/>
<path d="M10.189 12.3821C10.0037 11.268 9.40611 10.2642 8.515 9.57023C7.62388 8.87623 6.50437 8.54271 5.37875 8.63589C4.25312 8.72908 3.20369 9.24215 2.43883 10.0732C1.67397 10.9043 1.24961 11.9926 1.25 13.1221V16.1221H2.75L3.5 23.6221H8L8.75 16.1221" stroke="#006BFF" stroke-width="2" stroke-linecap="round" stroke-linejoin="round"/>
<path d="M11.75 14.6221H23.75V23.6221H11.75V14.6221Z" stroke="#006BFF" stroke-width="2" stroke-linecap="round" stroke-linejoin="round"/>
<path d="M11.75 18.3721H23.75" stroke="#006BFF" stroke-width="2" stroke-linecap="round" stroke-linejoin="round"/>
<path d="M17.75 17.6221V19.8721" stroke="#006BFF" stroke-width="2" stroke-linecap="round" stroke-linejoin="round"/>
<path d="M15.5 14.6221V13.8721C15.5 13.2754 15.7371 12.7031 16.159 12.2811C16.581 11.8592 17.1533 11.6221 17.75 11.6221V11.6221C18.3467 11.6221 18.919 11.8592 19.341 12.2811C19.7629 12.7031 20 13.2754 20 13.8721V14.6221" stroke="#006BFF" stroke-width="2" stroke-linecap="round" stroke-linejoin="round"/>
</svg>
