<svg width="25" height="26" viewBox="0 0 25 26" fill="none" xmlns="http://www.w3.org/2000/svg">
<path d="M6.00027 24.247L10.0523 14.793C10.101 14.6789 10.1207 14.5545 10.1096 14.431C10.0986 14.3074 10.0571 14.1885 9.98881 14.0849C9.92056 13.9813 9.82771 13.8962 9.71856 13.8372C9.6094 13.7783 9.48734 13.7473 9.36327 13.747H6.40027C6.27582 13.7475 6.1532 13.7169 6.04351 13.6581C5.93383 13.5993 5.84052 13.5141 5.77204 13.4102C5.70355 13.3062 5.66204 13.1869 5.65125 13.0629C5.64047 12.9389 5.66076 12.8142 5.71027 12.7L10.3003 2.2C10.3586 2.06631 10.4547 1.95254 10.5767 1.87261C10.6987 1.79268 10.8414 1.75008 10.9873 1.75H18.6873C18.8286 1.75005 18.967 1.79002 19.0866 1.8653C19.2062 1.94058 19.302 2.04811 19.3632 2.17551C19.4243 2.3029 19.4482 2.44497 19.4321 2.58536C19.4161 2.72575 19.3606 2.85873 19.2723 2.969L15.2223 8.032C15.1342 8.14235 15.079 8.27533 15.0631 8.41564C15.0472 8.55596 15.0713 8.69791 15.1325 8.82516C15.1937 8.95241 15.2896 9.05979 15.4092 9.13495C15.5287 9.21011 15.6671 9.24999 15.8083 9.25H19.1903C19.3387 9.24993 19.4838 9.29392 19.6073 9.37639C19.7307 9.45886 19.8269 9.5761 19.8836 9.71327C19.9404 9.85044 19.9552 10.0014 19.9261 10.1469C19.897 10.2925 19.8254 10.4262 19.7203 10.531L6.00027 24.247Z" stroke="#006BFF" stroke-width="2" stroke-linejoin="round"/>
</svg>
