<svg width="25" height="26" viewBox="0 0 25 26" fill="none" xmlns="http://www.w3.org/2000/svg">
<path d="M22.2637 9.25299V3.25299C22.2637 2.85517 22.1056 2.47364 21.8243 2.19233C21.543 1.91103 21.1615 1.75299 20.7637 1.75299H2.76367C2.36585 1.75299 1.98432 1.91103 1.70301 2.19233C1.42171 2.47364 1.26367 2.85517 1.26367 3.25299V19.753C1.26367 20.1508 1.42171 20.5323 1.70301 20.8137C1.98432 21.095 2.36585 21.253 2.76367 21.253H8.76367" stroke="#006BFF" stroke-width="2" stroke-linecap="round" stroke-linejoin="round"/>
<path d="M1.26367 6.25299H22.2637" stroke="#006BFF" stroke-width="2" stroke-linecap="round" stroke-linejoin="round"/>
<path d="M11.7598 18.253C11.7598 19.0409 11.915 19.8211 12.2165 20.5491C12.518 21.277 12.96 21.9385 13.5171 22.4956C14.0743 23.0528 14.7357 23.4947 15.4637 23.7963C16.1916 24.0978 16.9718 24.253 17.7598 24.253C18.5477 24.253 19.3279 24.0978 20.0559 23.7963C20.7838 23.4947 21.4453 23.0528 22.0024 22.4956C22.5596 21.9385 23.0015 21.277 23.303 20.5491C23.6046 19.8211 23.7598 19.0409 23.7598 18.253C23.7598 17.4651 23.6046 16.6848 23.303 15.9569C23.0015 15.2289 22.5596 14.5675 22.0024 14.0103C21.4453 13.4532 20.7838 13.0112 20.0559 12.7097C19.3279 12.4082 18.5477 12.253 17.7598 12.253C16.9718 12.253 16.1916 12.4082 15.4637 12.7097C14.7357 13.0112 14.0743 13.4532 13.5171 14.0103C12.96 14.5675 12.518 15.2289 12.2165 15.9569C11.915 16.6848 11.7598 17.4651 11.7598 18.253V18.253Z" stroke="#006BFF" stroke-width="2" stroke-linecap="round" stroke-linejoin="round"/>
<path d="M20.4118 18.253H17.7598V15.602" stroke="#006BFF" stroke-width="2" stroke-linecap="round" stroke-linejoin="round"/>
</svg>
