<svg width="25" height="24" viewBox="0 0 25 24" fill="none" xmlns="http://www.w3.org/2000/svg">
<path d="M12.0664 1.01697C12.1069 0.936606 12.1689 0.869065 12.2455 0.821874C12.3222 0.774683 12.4104 0.749695 12.5004 0.749695C12.5904 0.749695 12.6786 0.774683 12.7552 0.821874C12.8319 0.869065 12.8939 0.936606 12.9344 1.01697L13.9434 3.05097C13.9783 3.1207 14.0295 3.18094 14.0927 3.22657C14.1559 3.27219 14.2292 3.30184 14.3064 3.31297L16.5704 3.63997C16.6588 3.65239 16.742 3.68919 16.8107 3.74624C16.8794 3.80328 16.9309 3.87833 16.9594 3.96297C16.9873 4.04729 16.9907 4.13778 16.9693 4.22397C16.9479 4.31016 16.9025 4.38852 16.8384 4.44997L15.2004 6.04397C15.1451 6.09734 15.1036 6.16339 15.0795 6.2364C15.0555 6.30941 15.0496 6.38717 15.0624 6.46297L15.4504 8.70997C15.465 8.79788 15.4546 8.88813 15.4203 8.97038C15.386 9.05263 15.3292 9.12354 15.2564 9.17497C15.1831 9.2273 15.0967 9.25828 15.0068 9.26446C14.917 9.27064 14.8272 9.25178 14.7474 9.20997L12.7264 8.15597C12.6568 8.11902 12.5792 8.0997 12.5004 8.0997C12.4216 8.0997 12.344 8.11902 12.2744 8.15597L10.2584 9.20997C10.1786 9.25178 10.0888 9.27064 9.99893 9.26446C9.90907 9.25828 9.82269 9.2273 9.74938 9.17497C9.6766 9.12354 9.61979 9.05263 9.58548 8.97038C9.55116 8.88813 9.54073 8.79788 9.55538 8.70997L9.94338 6.46297C9.95615 6.38717 9.95026 6.30941 9.92622 6.2364C9.90217 6.16339 9.8607 6.09734 9.80538 6.04397L8.16238 4.44997C8.09826 4.38852 8.05286 4.31016 8.03145 4.22397C8.01003 4.13778 8.01348 4.04729 8.04138 3.96297C8.06984 3.87833 8.12131 3.80328 8.19001 3.74624C8.25872 3.68919 8.34195 3.65239 8.43038 3.63997L10.6944 3.31297C10.7715 3.30184 10.8449 3.27219 10.9081 3.22657C10.9713 3.18094 11.0225 3.1207 11.0574 3.05097L12.0664 1.01697Z" stroke="#006BFF" stroke-width="1.5" stroke-linecap="round" stroke-linejoin="round"/>
<path d="M6.82175 10.1L5.95875 9.64996C5.88881 9.6135 5.81111 9.59447 5.73225 9.59447C5.65338 9.59447 5.57568 9.6135 5.50575 9.64996L3.49075 10.7C3.41081 10.7417 3.32094 10.7606 3.23098 10.7546C3.14101 10.7486 3.05444 10.7179 2.98075 10.666C2.90798 10.6143 2.85126 10.5432 2.81712 10.4608C2.78298 10.3783 2.7728 10.2879 2.78775 10.2L3.17475 7.95396C3.18782 7.87824 3.18217 7.80047 3.15829 7.72744C3.13441 7.65441 3.09303 7.58833 3.03775 7.53496L1.39375 5.94396C1.33 5.88226 1.28493 5.80385 1.26371 5.71772C1.24248 5.63158 1.24596 5.54121 1.27375 5.45696C1.30221 5.37232 1.35368 5.29727 1.42238 5.24022C1.49109 5.18318 1.57432 5.14638 1.66275 5.13396L3.92575 4.80696C4.00308 4.79598 4.0766 4.7664 4.14 4.72077C4.2034 4.67514 4.25478 4.61481 4.28975 4.54496L5.29975 2.51096C5.34011 2.4305 5.4021 2.36289 5.47877 2.31572C5.55543 2.26856 5.64374 2.2437 5.73375 2.24396" stroke="#006BFF" stroke-width="1.5" stroke-linecap="round" stroke-linejoin="round"/>
<path d="M18.1777 10.1L19.0407 9.64896C19.1107 9.6125 19.1884 9.59347 19.2672 9.59347C19.3461 9.59347 19.4238 9.6125 19.4937 9.64896L21.5087 10.7C21.5887 10.7417 21.6785 10.7606 21.7685 10.7546C21.8585 10.7486 21.945 10.7179 22.0187 10.666C22.0915 10.6143 22.1482 10.5432 22.1824 10.4608C22.2165 10.3783 22.2267 10.2879 22.2117 10.2L21.8247 7.95396C21.8117 7.87824 21.8173 7.80047 21.8412 7.72744C21.8651 7.65441 21.9065 7.58833 21.9617 7.53496L23.6057 5.93996C23.6695 5.87826 23.7146 5.79985 23.7358 5.71372C23.757 5.62758 23.7535 5.53721 23.7257 5.45296C23.6973 5.36832 23.6458 5.29327 23.5771 5.23622C23.5084 5.17918 23.4252 5.14238 23.3367 5.12996L21.0737 4.80296C20.9964 4.79198 20.9229 4.7624 20.8595 4.71677C20.7961 4.67114 20.7447 4.61081 20.7097 4.54096L19.6997 2.51096C19.6594 2.4305 19.5974 2.36289 19.5207 2.31572C19.444 2.26856 19.3557 2.2437 19.2657 2.24396" stroke="#006BFF" stroke-width="1.5" stroke-linecap="round" stroke-linejoin="round"/>
<path d="M8.37758 15.447V16.447C8.41617 17.5982 8.11723 18.7355 7.51758 19.719" stroke="#006BFF" stroke-width="1.5" stroke-linecap="round" stroke-linejoin="round"/>
<path d="M16.6245 15.447V16.447C16.5856 17.5981 16.8842 18.7354 17.4835 19.719" stroke="#006BFF" stroke-width="1.5" stroke-linecap="round" stroke-linejoin="round"/>
<path d="M8.38867 15.665C9.16979 15.6596 9.94075 15.4874 10.6499 15.1599C11.3591 14.8324 11.9901 14.3572 12.5007 13.766C13.0112 14.3573 13.6421 14.8328 14.3513 15.1605C15.0605 15.4882 15.8315 15.6605 16.6127 15.666" stroke="#006BFF" stroke-width="1.5" stroke-linecap="round" stroke-linejoin="round"/>
<path d="M8.375 15.336C8.375 16.43 8.8096 17.4792 9.58318 18.2528C10.3568 19.0264 11.406 19.461 12.5 19.461C13.594 19.461 14.6432 19.0264 15.4168 18.2528C16.1904 17.4792 16.625 16.43 16.625 15.336C16.625 14.242 16.1904 13.1928 15.4168 12.4192C14.6432 11.6456 13.594 11.211 12.5 11.211C11.406 11.211 10.3568 11.6456 9.58318 12.4192C8.8096 13.1928 8.375 14.242 8.375 15.336V15.336Z" stroke="#006BFF" stroke-width="1.5" stroke-linecap="round" stroke-linejoin="round"/>
<path d="M17.5469 23.25C16.8515 22.4608 15.9819 21.8445 15.0069 21.45L12.4999 23.211L9.99289 21.454C9.02316 21.8454 8.15722 22.456 7.46289 23.238" stroke="#006BFF" stroke-width="1.5" stroke-linecap="round" stroke-linejoin="round"/>
</svg>
