<svg width="25" height="25" viewBox="0 0 25 25" fill="none" xmlns="http://www.w3.org/2000/svg">
<g clip-path="url(#clip0_967_21067)">
<path d="M1.5 4.14026V10.1403H7.5" stroke="#006BFF" stroke-width="2" stroke-linecap="round" stroke-linejoin="round"/>
<path d="M23.5 20.1403V14.1403H17.5" stroke="#006BFF" stroke-width="2" stroke-linecap="round" stroke-linejoin="round"/>
<path d="M20.99 9.14027C20.4828 7.70706 19.6209 6.42568 18.4845 5.41569C17.3482 4.40571 15.9745 3.70004 14.4917 3.36453C13.0089 3.02902 11.4652 3.07461 10.0048 3.49705C8.54437 3.91948 7.21475 4.70499 6.14 5.78027L1.5 10.1403M23.5 14.1403L18.86 18.5003C17.7853 19.5756 16.4556 20.3611 14.9952 20.7835C13.5348 21.2059 11.9911 21.2515 10.5083 20.916C9.02547 20.5805 7.6518 19.8748 6.51547 18.8649C5.37913 17.8549 4.51717 16.5735 4.01 15.1403" stroke="#006BFF" stroke-width="2" stroke-linecap="round" stroke-linejoin="round"/>
</g>
<defs>
<clipPath id="clip0_967_21067">
<rect width="24" height="24" fill="white" transform="translate(0.5 0.140259)"/>
</clipPath>
</defs>
</svg>
