<svg width="26" height="26" viewBox="0 0 26 26" fill="none" xmlns="http://www.w3.org/2000/svg">
<path d="M4.02019 15.6955C4.48247 16.7833 5.15447 17.7693 5.99782 18.5974C6.84117 19.4254 7.83936 20.0792 8.93538 20.5215C10.0314 20.9637 11.2038 21.1858 12.3857 21.175C13.5675 21.1641 14.7357 20.9206 15.8234 20.4584C16.9111 19.9961 17.8972 19.3241 18.7252 18.4807C19.5532 17.6374 20.2071 16.6392 20.6493 15.5432C21.0916 14.4471 21.3137 13.2747 21.3028 12.0929C21.292 10.911 21.0485 9.7429 20.5862 8.65516C20.1239 7.56742 19.4519 6.58138 18.6086 5.75334C17.7652 4.92531 16.767 4.27149 15.671 3.82923C14.575 3.38696 13.4026 3.1649 12.2207 3.17573C11.0389 3.18656 9.87075 3.43006 8.78301 3.89234C7.69527 4.35462 6.70923 5.02662 5.8812 5.86997C5.05316 6.71332 4.39935 7.7115 3.95708 8.80753C3.51481 9.90356 3.29275 11.076 3.30358 12.2578C3.31441 13.4397 3.55792 14.6078 4.02019 15.6955V15.6955Z" stroke="#006BFF" stroke-width="2" stroke-linecap="round" stroke-linejoin="round"/>
<path d="M18.666 18.5407L24.303 24.1757" stroke="#006BFF" stroke-width="2" stroke-linecap="round" stroke-linejoin="round"/>
<path d="M9.30273 9.17572C9.30273 9.97137 9.6188 10.7344 10.1814 11.297C10.744 11.8597 11.5071 12.1757 12.3027 12.1757C13.0984 12.1757 13.8614 11.8597 14.4241 11.297C14.9867 10.7344 15.3027 9.97137 15.3027 9.17572C15.3027 8.38007 14.9867 7.61701 14.4241 7.0544C13.8614 6.49179 13.0984 6.17572 12.3027 6.17572C11.5071 6.17572 10.744 6.49179 10.1814 7.0544C9.6188 7.61701 9.30273 8.38007 9.30273 9.17572V9.17572Z" stroke="#006BFF" stroke-width="2" stroke-linecap="round" stroke-linejoin="round"/>
<path d="M12.3027 13.6757V18.1757" stroke="#006BFF" stroke-width="2" stroke-linecap="round" stroke-linejoin="round"/>
<path d="M16.5271 16.6757C16.2214 15.799 15.6505 15.0392 14.8935 14.5015C14.1366 13.9638 13.2311 13.6749 12.3026 13.6749C11.3741 13.6749 10.4687 13.9638 9.71171 14.5015C8.95477 15.0392 8.38385 15.799 8.07812 16.6757" stroke="#006BFF" stroke-width="2" stroke-linecap="round" stroke-linejoin="round"/>
</svg>
