<svg width="25" height="26" viewBox="0 0 25 26" fill="none" xmlns="http://www.w3.org/2000/svg">
<path d="M2.75003 4.92302V12.537C2.75005 14.9437 3.47935 17.2938 4.84179 19.2777C6.20423 21.2615 8.13585 22.786 10.382 23.65L11.423 24.05C12.1163 24.3167 12.8838 24.3167 13.577 24.05L14.618 23.65C16.8642 22.786 18.7958 21.2615 20.1583 19.2777C21.5207 17.2938 22.25 14.9437 22.25 12.537V4.92302C22.2519 4.6365 22.171 4.35553 22.0171 4.1139C21.8631 3.87228 21.6426 3.68028 21.382 3.56102C18.5819 2.33881 15.5552 1.72168 12.5 1.75002C9.44489 1.72168 6.4182 2.33881 3.61803 3.56102C3.35751 3.68028 3.13699 3.87228 2.98301 4.1139C2.82902 4.35553 2.74812 4.6365 2.75003 4.92302V4.92302Z" stroke="#006BFF" stroke-width="2" stroke-linecap="round" stroke-linejoin="round"/>
<path d="M8 10.75H17V18.25H8V10.75Z" stroke="#006BFF" stroke-width="2" stroke-linecap="round" stroke-linejoin="round"/>
<path d="M12.5 6.25C11.7044 6.25 10.9413 6.56607 10.3787 7.12868C9.81607 7.69129 9.5 8.45435 9.5 9.25V10.75H15.5V9.25C15.5 8.45435 15.1839 7.69129 14.6213 7.12868C14.0587 6.56607 13.2956 6.25 12.5 6.25Z" stroke="#006BFF" stroke-width="2" stroke-linecap="round" stroke-linejoin="round"/>
<path d="M12.5 14.154C12.5742 14.154 12.6467 14.176 12.7083 14.2172C12.77 14.2584 12.8181 14.317 12.8465 14.3855C12.8748 14.454 12.8823 14.5294 12.8678 14.6022C12.8533 14.6749 12.8176 14.7417 12.7652 14.7942C12.7127 14.8466 12.6459 14.8823 12.5732 14.8968C12.5004 14.9113 12.425 14.9038 12.3565 14.8754C12.288 14.8471 12.2294 14.799 12.1882 14.7373C12.147 14.6757 12.125 14.6032 12.125 14.529C12.125 14.4295 12.1645 14.3342 12.2348 14.2638C12.3052 14.1935 12.4005 14.154 12.5 14.154" stroke="#006BFF" stroke-width="2" stroke-linecap="round" stroke-linejoin="round"/>
</svg>
