<svg width="160" height="119" viewBox="0 0 160 119" fill="none" xmlns="http://www.w3.org/2000/svg">
<path d="M3.68207 19.2852H114.144V115.019H3.68207V19.2852Z" stroke="#006BFF" stroke-width="7.36411" stroke-linecap="round" stroke-linejoin="round"/>
<path d="M33.1385 30.3315V4.55707" stroke="#006BFF" stroke-width="7.36411" stroke-linecap="round" stroke-linejoin="round"/>
<path d="M84.6873 30.3315V4.55707" stroke="#006BFF" stroke-width="7.36411" stroke-linecap="round" stroke-linejoin="round"/>
<path d="M25.7744 70.8342H47.8667V92.9265H25.7744V70.8342Z" stroke="#006BFF" stroke-width="7.36411" stroke-linecap="round" stroke-linejoin="round"/>
<path d="M69.9591 48.7417V92.9264" stroke="#006BFF" stroke-width="7.36411" stroke-linecap="round" stroke-linejoin="round"/>
<path d="M47.8668 48.7417H92.0514V92.9264H47.8668V48.7417Z" stroke="#006BFF" stroke-width="7.36411" stroke-linecap="round" stroke-linejoin="round"/>
<path d="M47.8668 70.8342H92.0514" stroke="#006BFF" stroke-width="7.36411" stroke-linecap="round" stroke-linejoin="round"/>
<path d="M129.57 39.5483C129.57 42.6437 130.8 45.6124 132.989 47.8012C135.178 49.99 138.146 51.2197 141.242 51.2197C144.337 51.2197 147.306 49.99 149.495 47.8012C151.683 45.6124 152.913 42.6437 152.913 39.5483C152.913 36.4528 151.683 33.4841 149.495 31.2953C147.306 29.1065 144.337 27.8768 141.242 27.8768C138.146 27.8768 135.178 29.1065 132.989 31.2953C130.8 33.4841 129.57 36.4528 129.57 39.5483V39.5483Z" stroke="#006BFF" stroke-width="6.66939" stroke-linecap="round" stroke-linejoin="round"/>
<path d="M155.688 61.2239C153.906 59.1317 151.691 57.4514 149.196 56.2991C146.701 55.1468 143.985 54.55 141.237 54.55C138.489 54.55 135.774 55.1468 133.279 56.2991C130.784 57.4514 128.569 59.1317 126.787 61.2239" stroke="#006BFF" stroke-width="6.66939" stroke-linecap="round" stroke-linejoin="round"/>
<path d="M129.57 86.1875C129.57 89.2829 130.8 92.2516 132.989 94.4404C135.178 96.6292 138.146 97.8589 141.242 97.8589C144.337 97.8589 147.306 96.6292 149.495 94.4404C151.683 92.2516 152.913 89.2829 152.913 86.1875C152.913 83.092 151.683 80.1233 149.495 77.9345C147.306 75.7457 144.337 74.5161 141.242 74.5161C138.146 74.5161 135.178 75.7457 132.989 77.9345C130.8 80.1233 129.57 83.092 129.57 86.1875V86.1875Z" stroke="#006BFF" stroke-width="6.66939" stroke-linecap="round" stroke-linejoin="round"/>
<path d="M155.688 107.863C153.906 105.771 151.691 104.091 149.196 102.939C146.701 101.786 143.985 101.19 141.237 101.19C138.489 101.19 135.774 101.786 133.279 102.939C130.784 104.091 128.569 105.771 126.787 107.863" stroke="#006BFF" stroke-width="6.66939" stroke-linecap="round" stroke-linejoin="round"/>
</svg>
