<svg width="25" height="25" viewBox="0 0 25 25" fill="none" xmlns="http://www.w3.org/2000/svg">
<path d="M3.5 4.12213C3.5 4.91778 3.81607 5.68084 4.37868 6.24345C4.94129 6.80606 5.70435 7.12213 6.5 7.12213C7.29565 7.12213 8.05871 6.80606 8.62132 6.24345C9.18393 5.68084 9.5 4.91778 9.5 4.12213C9.5 3.32648 9.18393 2.56342 8.62132 2.00081C8.05871 1.4382 7.29565 1.12213 6.5 1.12213C5.70435 1.12213 4.94129 1.4382 4.37868 2.00081C3.81607 2.56342 3.5 3.32648 3.5 4.12213V4.12213Z" stroke="#006BFF" stroke-width="2" stroke-linecap="round" stroke-linejoin="round"/>
<path d="M11.055 11.2601C10.4791 10.2569 9.58792 9.47183 8.52001 9.02702C7.45209 8.58221 6.26717 8.50252 5.1493 8.80031C4.03144 9.0981 3.0432 9.75672 2.33809 10.6739C1.63299 11.591 1.25049 12.7153 1.25 13.8721V16.1221H3.5L4.25 23.6221H8.75L9.074 20.3891" stroke="#006BFF" stroke-width="2" stroke-linecap="round" stroke-linejoin="round"/>
<path d="M11.75 17.6221C11.75 19.2134 12.3821 20.7396 13.5074 21.8648C14.6326 22.99 16.1587 23.6221 17.75 23.6221C19.3413 23.6221 20.8674 22.99 21.9926 21.8648C23.1179 20.7396 23.75 19.2134 23.75 17.6221C23.75 16.0308 23.1179 14.5047 21.9926 13.3795C20.8674 12.2543 19.3413 11.6221 17.75 11.6221C16.1587 11.6221 14.6326 12.2543 13.5074 13.3795C12.3821 14.5047 11.75 16.0308 11.75 17.6221Z" stroke="#006BFF" stroke-width="2" stroke-linecap="round" stroke-linejoin="round"/>
<path d="M20.402 17.6222H17.75V14.9702" stroke="#006BFF" stroke-width="2" stroke-linecap="round" stroke-linejoin="round"/>
<path d="M14.375 3.74713C14.375 4.44332 14.6516 5.111 15.1438 5.60329C15.6361 6.09557 16.3038 6.37213 17 6.37213C17.6962 6.37213 18.3639 6.09557 18.8562 5.60329C19.3484 5.111 19.625 4.44332 19.625 3.74713C19.625 3.05094 19.3484 2.38326 18.8562 1.89098C18.3639 1.39869 17.6962 1.12213 17 1.12213C16.3038 1.12213 15.6361 1.39869 15.1438 1.89098C14.6516 2.38326 14.375 3.05094 14.375 3.74713V3.74713Z" stroke="#006BFF" stroke-width="2" stroke-linecap="round" stroke-linejoin="round"/>
<path d="M20.9002 9.37215C20.5422 8.75244 20.0416 8.22707 19.4398 7.83963C18.838 7.45219 18.1526 7.21387 17.4402 7.14445C16.7279 7.07503 16.0093 7.17651 15.3441 7.44046C14.6789 7.70442 14.0862 8.12323 13.6152 8.66215" stroke="#006BFF" stroke-width="2" stroke-linecap="round" stroke-linejoin="round"/>
</svg>
