<svg fill="none" height="48" viewBox="0 0 48 48" width="48" xmlns="http://www.w3.org/2000/svg"><g stroke="#006bff" stroke-linecap="round" stroke-linejoin="round" stroke-width="2.5"><path d="m14.275 8.4307 1.4351-4.47542-4.4755-1.43513"/><path d="m13.5091 4.73523c-6.85972 3.59377-11.54005 10.78167-11.54005 19.06267s4.68033 15.4689 11.54005 19.0627"/><path d="m34.9101 38.8426-2.3499 4.0702 4.0702 2.35"/><path d="m34.4909 42.8606c6.8597-3.5938 11.5401-10.7817 11.5401-19.0627s-4.6804-15.46889-11.5401-19.06267"/><path d="m15.4375 13h16.25v4.875h-16.25z"/><path d="m23.7917 18v11"/><path d="m15.4375 29.3103v-4.875c0-.431.1712-.8443.476-1.149.3047-.3048.718-.476 1.149-.476h13c.431 0 .8443.1712 1.149.476.3048.3047.476.718.476 1.149v4.875"/><path d="m13 31.7478c0 .3201.063.6371.1855.9328s.3021.5644.5284.7908c.2264.2263.4951.4059.7908.5284s.6127.1855.9328.1855.6371-.063.9328-.1855.5644-.3021.7908-.5284c.2263-.2264.4059-.4951.5284-.7908s.1855-.6127.1855-.9328-.063-.6371-.1855-.9328-.3021-.5644-.5284-.7908c-.2264-.2263-.4951-.4059-.7908-.5284-.2957-.1224-.6127-.1855-.9328-.1855s-.6371.0631-.9328.1855c-.2957.1225-.5644.3021-.7908.5284-.2263.2264-.4059.4951-.5284.7908s-.1855.6127-.1855.9328z"/><path d="m21.2917 31.7478c0 .3201.063.6371.1855.9328s.302.5644.5284.7908c.2263.2263.495.4059.7908.5284.2957.1225.6127.1855.9328.1855s.637-.063.9327-.1855c.2958-.1225.5645-.3021.7908-.5284.2264-.2264.4059-.4951.5284-.7908s.1856-.6127.1856-.9328-.0631-.6371-.1856-.9328-.302-.5644-.5284-.7908c-.2263-.2263-.495-.4059-.7908-.5284-.2957-.1224-.6126-.1855-.9327-.1855s-.6371.0631-.9328.1855c-.2958.1225-.5645.3021-.7908.5284-.2264.2264-.4059.4951-.5284.7908s-.1855.6127-.1855.9328z"/><path d="m29.25 31.7478c0 .3201.063.6371.1855.9328s.3021.5644.5284.7908c.2264.2263.4951.4059.7908.5284s.6127.1855.9328.1855.6371-.063.9328-.1855.5644-.3021.7908-.5284c.2263-.2264.4059-.4951.5284-.7908s.1855-.6127.1855-.9328-.063-.6371-.1855-.9328-.3021-.5644-.5284-.7908c-.2264-.2263-.4951-.4059-.7908-.5284-.2957-.1224-.6127-.1855-.9328-.1855s-.6371.0631-.9328.1855c-.2957.1225-.5644.3021-.7908.5284-.2263.2264-.4059.4951-.5284.7908s-.1855.6127-.1855.9328z"/></g></svg>